<?xml version="1.0" standalone="no"?>
<!DOCTYPE svg PUBLIC "-//W3C//DTD SVG 20010904//EN"
 "http://www.w3.org/TR/2001/REC-SVG-20010904/DTD/svg10.dtd">
<svg version="1.0" xmlns="http://www.w3.org/2000/svg"
 width="774.000000pt" height="774.000000pt" viewBox="0 0 774.000000 774.000000"
 preserveAspectRatio="xMidYMid meet">
<metadata>
Created by potrace 1.15, written by Peter Selinger 2001-2017
</metadata>
<g transform="translate(0.000000,774.000000) scale(0.100000,-0.100000)"
fill="#000000" stroke="none">
<path d="M4254 7498 c-35 -70 -146 -286 -299 -583 -40 -77 -123 -239 -185
-360 -62 -121 -119 -230 -126 -242 l-14 -23 -40 29 c-75 54 -169 62 -250 21
-75 -39 -91 -66 -265 -452 -93 -205 -190 -418 -216 -474 l-46 -101 -154 -56
c-152 -55 -378 -138 -494 -182 -33 -12 -104 -39 -157 -59 -54 -20 -140 -52
-192 -71 -137 -50 -146 -55 -204 -99 -95 -71 -154 -174 -176 -307 -10 -60 105
-705 214 -1204 65 -299 81 -372 95 -436 74 -341 233 -558 485 -662 144 -60
275 -80 760 -117 241 -18 393 -35 552 -60 52 -8 71 -20 210 -124 231 -175 604
-467 832 -653 110 -89 158 -114 232 -118 31 -2 58 -5 60 -8 3 -2 -36 -87 -87
-188 -59 -119 -88 -188 -83 -196 295 -432 385 -564 412 -598 l22 -30 -20 55
c-11 30 -63 168 -115 307 -52 139 -95 257 -95 264 0 6 29 59 64 118 35 58 123
207 196 331 73 124 145 245 160 270 27 45 159 268 375 635 65 110 128 217 142
238 l24 38 -127 237 c-70 130 -147 275 -172 322 -24 47 -75 141 -112 210 -37
69 -109 204 -160 300 -51 96 -103 194 -116 218 -13 24 -54 100 -91 170 -36 70
-70 132 -76 139 -6 8 13 77 57 205 36 106 102 298 146 427 44 129 77 238 73
241 -5 4 -39 29 -78 56 -38 26 -90 65 -115 85 -25 20 -314 250 -642 512 l-597
476 10 33 c9 31 48 170 90 323 11 39 26 93 33 120 8 28 29 102 46 165 18 63
40 144 50 180 33 122 68 245 120 430 67 238 89 320 84 320 -2 0 -20 -33 -40
-72z m-558 -1783 c38 -33 245 -211 460 -395 214 -184 454 -390 534 -459 80
-68 146 -130 148 -138 2 -7 -51 -175 -117 -373 -67 -198 -121 -364 -121 -370
0 -11 56 -110 304 -539 99 -172 114 -201 101 -201 -7 0 -590 292 -695 348 -91
49 -264 144 -425 235 -115 65 -178 81 -257 67 -89 -16 -307 -133 -769 -414
-70 -42 -131 -76 -137 -76 -12 0 -13 3 -42 215 -25 180 -94 629 -118 772 l-18
103 329 177 c180 98 343 192 362 210 45 43 57 68 127 267 33 94 92 261 130
371 38 110 77 219 85 243 17 49 6 53 119 -43z m75 -2598 c114 -52 491 -203
779 -314 36 -14 146 -54 245 -90 167 -60 185 -65 245 -61 80 6 132 32 188 92
23 25 44 46 46 46 2 0 24 -35 48 -77 24 -43 72 -126 106 -185 34 -58 62 -113
62 -121 0 -11 -383 -802 -394 -814 -2 -2 -77 70 -167 160 -453 445 -937 901
-1001 943 -39 25 -174 62 -443 119 -93 20 -172 38 -174 41 -6 6 -4 8 134 111
154 115 255 184 264 179 3 -2 31 -15 62 -29z"/>
<path d="M1790 6287 c-178 -42 -321 -170 -395 -352 -26 -63 -29 -81 -29 -185
1 -93 5 -128 23 -180 93 -268 371 -426 647 -366 106 23 188 68 269 149 290
290 183 773 -203 914 -82 30 -229 39 -312 20z"/>
</g>
</svg>
