<!DOCTYPE svg PUBLIC "-//W3C//DTD SVG 20010904//EN" "http://www.w3.org/TR/2001/REC-SVG-20010904/DTD/svg10.dtd">
<svg version="1.0" xmlns="http://www.w3.org/2000/svg" width="73px" height="85px" viewBox="0 0 730 850" preserveAspectRatio="xMidYMid meet">
<g id="layer101" fill="#3333cc" stroke="none">
 <path d="M282 820 c-106 -53 -209 -176 -263 -313 -15 -37 -19 -73 -19 -161 0 -111 0 -113 25 -124 26 -12 64 -80 65 -114 0 -23 0 -22 144 -67 l126 -39 134 40 133 40 12 48 c13 52 50 100 76 100 13 0 15 18 15 113 l0 112 -50 103 c-63 128 -144 216 -241 262 -35 16 -71 30 -80 30 -9 0 -43 -14 -77 -30z"/>
 </g>
<g id="layer102" fill="#666666" stroke="none">
 <path d="M290 795 c-69 -36 -124 -88 -179 -170 -71 -107 -91 -167 -91 -276 l0 -90 35 -31 c24 -20 40 -46 48 -75 6 -25 18 -48 27 -53 8 -4 64 -22 124 -40 l108 -32 122 37 123 37 12 46 c7 26 26 59 46 79 l35 35 0 101 c0 98 -1 104 -41 183 -51 104 -137 199 -217 242 -71 38 -92 39 -152 7z m125 -21 c68 -32 175 -144 210 -218 49 -106 55 -128 55 -205 0 -73 -1 -78 -29 -99 -16 -11 -39 -45 -51 -74 l-22 -53 -96 -29 c-54 -16 -103 -33 -109 -38 -9 -7 -17 -7 -25 0 -7 5 -56 22 -110 38 -96 29 -96 29 -108 69 -7 23 -29 56 -52 78 l-40 38 4 82 c3 72 8 92 45 167 51 105 125 188 206 235 34 19 63 35 64 35 1 0 27 -12 58 -26z"/>
 <path d="M302 754 c-71 -35 -154 -130 -203 -230 -35 -73 -39 -88 -39 -160 0 -74 2 -82 26 -105 15 -13 37 -48 50 -76 13 -29 25 -53 27 -53 2 0 47 -13 100 -29 l97 -29 105 31 104 32 17 44 c9 24 30 58 46 77 29 33 30 36 26 121 -3 76 -8 97 -38 157 -40 78 -143 196 -192 219 -61 28 -72 28 -126 1z"/>
 <path d="M561 725 c21 -23 49 -61 64 -84 15 -22 30 -41 32 -41 11 0 -37 67 -82 114 -27 29 -34 34 -14 11z"/>
 <path d="M123 688 c-19 -22 -63 -88 -51 -78 9 8 78 100 75 100 -2 0 -13 -10 -24 -22z"/>
 <path d="M720 305 c-6 -70 -5 -83 5 -73 3 3 5 37 3 74 l-3 69 -5 -70z"/>
 <path d="M23 224 c16 -9 37 -34 48 -57 10 -23 19 -36 19 -29 0 36 -55 103 -85 102 -5 -1 3 -8 18 -16z"/>
 <path d="M525 60 c-13 -5 -14 -9 -5 -9 8 0 24 4 35 9 13 5 14 9 5 9 -8 0 -24 -4 -35 -9z"/>
 </g>
<g id="layer103" fill="#a4a4a4" stroke="none">
 <path d="M290 795 c-69 -36 -124 -88 -179 -170 -72 -108 -91 -166 -91 -278 0 -91 0 -92 29 -109 21 -11 35 -33 51 -76 l22 -59 119 -37 120 -37 102 31 c145 44 142 42 157 94 8 30 25 57 46 76 l34 29 0 100 c0 98 -1 100 -46 190 -55 111 -131 196 -212 239 -71 38 -92 39 -152 7z m125 -21 c68 -32 175 -144 210 -218 49 -106 55 -128 55 -205 0 -73 -1 -78 -29 -99 -16 -11 -39 -45 -51 -74 l-22 -53 -96 -29 c-54 -16 -103 -33 -109 -38 -9 -7 -17 -7 -25 0 -7 5 -56 22 -110 38 -96 29 -96 29 -108 69 -7 23 -29 56 -52 78 l-40 38 4 82 c3 72 8 93 45 167 50 103 134 197 213 240 30 16 56 30 57 30 1 0 27 -12 58 -26z"/>
 <path d="M302 754 c-71 -35 -154 -130 -203 -230 -35 -73 -39 -88 -39 -160 0 -74 2 -82 26 -105 15 -13 37 -48 50 -76 13 -29 25 -53 27 -53 2 0 47 -13 100 -29 l97 -29 105 31 104 32 17 44 c9 24 30 58 46 77 29 33 30 36 26 121 -3 76 -8 97 -38 157 -40 78 -143 196 -192 219 -61 28 -72 28 -126 1z"/>
 <path d="M555 730 c21 -22 41 -40 44 -40 3 0 -13 18 -34 40 -21 22 -41 40 -44 40 -3 0 13 -18 34 -40z"/>
 <path d="M720 305 c-6 -70 -5 -83 5 -73 3 3 5 37 3 74 l-3 69 -5 -70z"/>
 </g>
<g id="layer104" fill="#aeaee0" stroke="none">
 <path d="M285 790 c-98 -56 -186 -163 -241 -297 -18 -45 -24 -77 -24 -143 l0 -85 34 -28 c24 -18 40 -43 52 -80 l16 -52 107 -34 c58 -18 117 -33 131 -34 14 0 74 15 134 34 l109 35 13 42 c16 55 38 89 64 97 18 6 20 15 20 100 0 113 -18 169 -89 277 -57 86 -86 115 -165 162 -71 43 -95 44 -161 6z m129 -16 c49 -23 101 -68 167 -144 12 -14 38 -59 58 -100 31 -65 36 -87 39 -162 l4 -87 -35 -35 c-19 -19 -41 -54 -49 -78 l-15 -43 -94 -28 c-52 -16 -102 -33 -112 -38 -11 -6 -23 -6 -30 -1 -7 4 -56 21 -110 37 l-97 28 -12 41 c-7 22 -30 58 -51 79 l-39 39 4 82 c3 73 8 92 46 170 52 105 138 200 214 239 29 14 54 26 55 27 1 0 27 -12 57 -26z"/>
 <path d="M314 760 c-63 -32 -118 -84 -167 -158 -67 -103 -87 -159 -87 -244 0 -69 2 -76 29 -102 16 -16 39 -50 51 -77 11 -27 26 -49 33 -49 7 0 52 -13 100 -29 l87 -28 102 31 101 32 22 49 c12 28 34 61 49 74 24 23 26 31 26 107 0 76 -3 88 -40 163 -60 119 -161 220 -245 245 -11 3 -38 -3 -61 -14z"/>
 <path d="M720 305 c-6 -70 -5 -83 5 -73 3 3 5 37 3 74 l-3 69 -5 -70z"/>
 </g>
<g id="layer105" fill="#fdfdfd" stroke="none">
 <path d="M279 785 c-81 -50 -158 -138 -210 -241 -41 -83 -44 -95 -47 -182 l-4 -93 36 -32 c21 -19 44 -53 55 -82 l19 -49 98 -31 c55 -16 105 -34 112 -38 13 -9 234 56 258 75 7 5 15 25 19 44 4 22 21 50 46 75 l39 39 0 89 c0 87 -1 92 -50 189 -36 72 -67 117 -108 159 -59 59 -151 114 -187 112 -11 0 -45 -16 -76 -34z m116 2 c6 -1 12 -4 15 -7 3 -3 22 -14 43 -24 59 -30 139 -126 188 -226 28 -55 33 -79 37 -158 l4 -93 -36 -35 c-22 -22 -41 -52 -48 -79 l-12 -43 -95 -27 c-53 -16 -104 -32 -113 -37 -10 -5 -25 -5 -35 1 -10 5 -54 19 -98 32 -99 28 -115 36 -115 55 0 26 -39 93 -65 110 -23 15 -25 22 -25 95 0 120 57 243 161 347 55 55 144 106 169 96 8 -3 20 -6 25 -7z"/>
 <path d="M305 753 c-75 -39 -147 -121 -199 -226 -42 -83 -46 -99 -46 -163 0 -68 2 -73 35 -108 19 -20 40 -55 46 -76 12 -40 13 -40 113 -72 56 -18 106 -32 111 -31 6 1 52 15 104 31 l94 29 22 49 c12 27 34 60 49 73 24 23 26 31 26 105 0 73 -3 87 -40 161 -47 94 -110 170 -177 213 -68 43 -82 44 -138 15z"/>
 <path d="M718 270 c-2 -22 0 -40 4 -40 5 0 8 18 8 40 0 22 -2 40 -4 40 -2 0 -6 -18 -8 -40z"/>
 </g>

</svg>